PathFileType	4	(x/y/z)	S02_M20_T05
DataRate	CameraRate	NumFrames	NumMarkers	Units	OrigDataRate	OrigDataStartFrame	OrigNumFrames
240	240	10	51	mm	240	115	459
Frame#	Time	Sternum			R.Acromium			L.Acromium			Top.Head			R.ASIS			L.ASIS			R.PSIS			L.PSIS			R.Great.Tro			L.Great.Tro			R.Iliac.Crest			L.Iliac.Crest			V.Sacral			R.Thigh.Upper.Post			R.Thigh.Lower.Ant			R.Thigh.Lower.Post			R.Thigh.Upper.Ant			R.Knee.Lat			R.Knee.Med			R.Shank.Upper.Post			R.Shank.Lower.Ant			R.Shank.Lower.Post			R.Shank.Upper.Ant			R.Ankle.Lat			R.Ankle.Med			R.Heel.Upper			R.Heel.Med			R.Heel.Lat			R.Toe.Lat			R.Toe.Med			R.Toe.Tip			L.Thigh.Upper.Post			L.Thigh.Lower.Ant			L.Thigh.Lower.Post			L.Thigh.Upper.Ant			L.Knee.Lat			L.Knee.Med			L.Shank.Upper.Post			L.Shank.Lower.Ant			L.Shank.Lower.Post			L.Shank.Upper.Ant			L.Ankle.Lat			L.Ankle.Med			L.Heel.Upper			L.Heel.Med			L.Heel.Lat			L.Toe.Lat			L.Toe.Med			L.Toe.Tip			Cervical.Spine			Back			
		X1	Y1	Z1	X2	Y2	Z2	X3	Y3	Z3	X4	Y4	Z4	X5	Y5	Z5	X6	Y6	Z6	X7	Y7	Z7	X8	Y8	Z8	X9	Y9	Z9	X10	Y10	Z10	X11	Y11	Z11	X12	Y12	Z12	X13	Y13	Z13	X14	Y14	Z14	X15	Y15	Z15	X16	Y16	Z16	X17	Y17	Z17	X18	Y18	Z18	X19	Y19	Z19	X20	Y20	Z20	X21	Y21	Z21	X22	Y22	Z22	X23	Y23	Z23	X24	Y24	Z24	X25	Y25	Z25	X26	Y26	Z26	X27	Y27	Z27	X28	Y28	Z28	X29	Y29	Z29	X30	Y30	Z30	X31	Y31	Z31	X32	Y32	Z32	X33	Y33	Z33	X34	Y34	Z34	X35	Y35	Z35	X36	Y36	Z36	X37	Y37	Z37	X38	Y38	Z38	X39	Y39	Z39	X40	Y40	Z40	X41	Y41	Z41	X42	Y42	Z42	X43	Y43	Z43	X44	Y44	Z44	X45	Y45	Z45	X46	Y46	Z46	X47	Y47	Z47	X48	Y48	Z48	X49	Y49	Z49	X50	Y50	Z50	X51	Y51	Z51	

115	0.475	-913.59	1086.3	283.38	-1026.1	1327.4	420.69	-1008	1320.2	129.51	-974.42	1602.1	245.65	-922.69	909.51	378.59	-945.33	901.52	161.49	-1142.9	938.91	357.18	-1163	948.56	286.55	-970.53	792.33	479.89	-1097.4	832.37	98.68	-1016.8	956.5	451.14	-1079.8	950.92	119.3	-1177.6	894.57	317.1	-884.5	614.92	463.03	-808.22	564.22	416.82	-865.24	527.92	444.54	-832.83	649.49	431.7	-815.98	469.89	428.79	-830.31	446.99	283.02	-781.32	255.24	415.4	-674.5	228.19	402.92	-734.92	198.32	406.77	-714.88	285.37	418.71	-662.8	122.9	396.24	-658.79	146.93	315.13	-702.08	78.931	336.35	-669.35	65.639	308.15	-680.4	51.559	370.01	-547.01	133.49	425.29	-517.49	164.42	323.58	-498.02	207.63	385.24	-1171.4	621.22	140.66	-1116.7	525.02	139.39	-1191.9	536.34	165.94	-1103.2	616.57	115.56	-1154.3	450.32	157.48	-1140	450.44	296.19	-1272.6	307.6	175.16	-1230.3	204.75	193.46	-1298.5	236.85	200.58	-1217.5	278.05	171.74	-1294.5	111.3	215.64	-1280.3	112.58	299.77	-1359.8	88.288	255.88	-1353.6	64.279	289.04	-1358	61.225	227.59	-1197.1	33.758	193.02	-1172.3	45.027	302.03	-1111.9	52.213	253	-1093.9	1383.2	269.32	-1179.2	1135.4	282.3
116	0.47917	-908.3	1084.8	283.29	-1020.7	1325.9	421.06	-1002.7	1318.8	129.88	-969.26	1600.8	246.25	-916.94	907.99	378.18	-940.34	900.03	161.21	-1137.2	937.53	357.58	-1157.2	947.06	287.05	-964.47	790.94	479.75	-1092.7	831.26	98.727	-1010.8	955.06	451.31	-1074.9	949.51	119.35	-1171.9	893.14	317.62	-878.34	613.96	462.55	-801.97	563.49	416.23	-858.85	527.02	444	-826.8	648.69	431.19	-809.44	469.25	428.17	-824.24	446.13	282.5	-773.22	254.74	414.43	-666.19	228.49	401.89	-726.38	198.18	405.73	-707	285.36	417.83	-653.6	123.25	395	-649.92	147.5	313.95	-692.62	79.086	335.05	-659.83	66.104	306.79	-670.67	51.794	368.61	-537.84	134.65	423.93	-508.69	166.12	322.24	-489.48	209.34	383.98	-1167.4	620.57	140.7	-1113.1	524.15	139.29	-1188.2	535.78	166.01	-1099.2	615.64	115.48	-1150.9	449.59	157.4	-1136.5	449.58	296.11	-1270.6	307.78	175.17	-1229	204.64	193.51	-1296.9	237.3	200.5	-1215.4	277.83	171.71	-1294.2	111.76	215.67	-1279.9	112.93	299.81	-1359.6	88.942	255.84	-1353.5	64.91	289	-1357.8	61.9	227.52	-1197.1	33.761	193.05	-1172.2	44.976	302.08	-1111.8	52.064	253.05	-1088.6	1381.9	269.74	-1173.7	1133.9	282.69
117	0.48333	-902.96	1083.3	283.21	-1015.2	1324.3	421.45	-997.41	1317.5	130.26	-964.09	1599.5	246.88	-911.17	906.48	377.79	-935.36	898.53	160.96	-1131.5	936.16	357.96	-1151.4	945.58	287.54	-958.4	789.61	479.65	-1087.9	830.14	98.791	-1004.8	953.64	451.46	-1070.1	948.11	119.4	-1166.2	891.72	318.13	-872.09	613.06	462.09	-795.64	562.85	415.64	-852.34	526.19	443.48	-820.71	647.96	430.69	-802.81	468.65	427.54	-818.06	445.35	281.97	-765.34	254.22	413.43	-658.14	228.64	400.86	-718.12	197.97	404.67	-699.3	285.25	416.93	-644.8	123.47	393.76	-641.41	147.9	312.76	-683.6	79.136	333.73	-650.77	66.424	305.42	-661.41	51.905	367.21	-529.07	135.55	422.58	-500.24	167.49	320.91	-481.24	210.7	382.73	-1163.3	619.91	140.74	-1109.4	523.27	139.19	-1184.4	535.2	166.08	-1095.2	614.71	115.39	-1147.5	448.85	157.3	-1132.8	448.71	296.04	-1268.5	307.96	175.2	-1227.6	204.56	193.55	-1295.3	237.78	200.4	-1213.4	277.61	171.7	-1293.7	112.25	215.67	-1279.4	113.32	299.83	-1359.3	89.672	255.77	-1353.3	65.612	288.94	-1357.5	62.634	227.42	-1197	33.764	193.07	-1172.2	44.931	302.11	-1111.7	51.913	253.1	-1083.3	1380.5	270.18	-1168.1	1132.4	283.08
118	0.4875	-897.59	1081.8	283.13	-1009.8	1322.8	421.84	-992.08	1316.1	130.65	-958.89	1598.2	247.53	-905.37	904.98	377.41	-930.39	897.02	160.74	-1125.8	934.82	358.33	-1145.6	944.13	288	-952.32	788.34	479.57	-1083.1	829.02	98.873	-998.77	952.24	451.6	-1065.1	946.7	119.46	-1160.5	890.32	318.63	-865.76	612.22	461.67	-789.23	562.29	415.05	-845.73	525.43	442.98	-814.56	647.31	430.2	-796.1	468.08	426.89	-811.77	444.66	281.43	-757.66	253.68	412.41	-650.34	228.64	399.83	-710.16	197.7	403.61	-691.78	285.03	416.03	-636.4	123.53	392.51	-633.25	148.14	311.57	-675.02	79.071	332.42	-642.16	66.589	304.05	-652.63	51.882	365.81	-520.7	136.16	421.25	-492.13	168.53	319.59	-473.32	211.72	381.5	-1159.1	619.23	140.78	-1105.6	522.39	139.09	-1180.5	534.6	166.16	-1091.1	613.77	115.31	-1143.9	448.11	157.2	-1129.1	447.83	295.96	-1266.4	308.14	175.25	-1226.1	204.5	193.56	-1293.6	238.3	200.27	-1211.3	277.38	171.69	-1293.3	112.77	215.64	-1279	113.76	299.81	-1359	90.485	255.67	-1353.2	66.392	288.85	-1357.3	63.431	227.3	-1197	33.766	193.09	-1172.1	44.894	302.13	-1111.6	51.76	253.14	-1078	1379.2	270.64	-1162.6	1130.9	283.47
119	0.49167	-892.18	1080.3	283.05	-1004.3	1321.2	422.25	-986.7	1314.8	131.06	-953.68	1596.9	248.2	-899.55	903.49	377.05	-925.4	895.49	160.55	-1120.1	933.51	358.68	-1139.8	942.71	288.45	-946.23	787.15	479.52	-1078.2	827.91	98.974	-992.75	950.86	451.72	-1060.2	945.3	119.52	-1154.8	888.96	319.11	-859.34	611.43	461.27	-782.73	561.82	414.45	-839.02	524.73	442.5	-808.35	646.74	429.73	-789.31	467.55	426.22	-805.35	444.05	280.89	-750.2	253.13	411.36	-642.79	228.49	398.8	-702.48	197.35	402.53	-684.43	284.71	415.11	-628.4	123.43	391.25	-625.45	148.21	310.37	-666.87	78.883	331.1	-634	66.59	302.69	-644.33	51.718	364.42	-512.73	136.5	419.93	-484.36	169.23	318.29	-465.71	212.38	380.27	-1154.8	618.55	140.83	-1101.7	521.5	138.99	-1176.5	534	166.24	-1086.9	612.84	115.23	-1140.3	447.37	157.09	-1125.2	446.95	295.89	-1264.2	308.32	175.31	-1224.6	204.47	193.56	-1291.8	238.86	200.12	-1209.1	277.16	171.69	-1292.7	113.34	215.58	-1278.6	114.26	299.75	-1358.7	91.387	255.55	-1353	67.251	288.74	-1357	64.297	227.16	-1196.9	33.767	193.1	-1172	44.864	302.14	-1111.5	51.606	253.18	-1072.6	1377.9	271.12	-1156.9	1129.5	283.88
120	0.49583	-886.72	1078.8	282.99	-998.7	1319.7	422.67	-981.29	1313.5	131.47	-948.44	1595.6	248.89	-893.71	902.04	376.72	-920.39	893.97	160.38	-1114.3	932.23	359.03	-1134	941.33	288.87	-940.13	786.04	479.49	-1073.3	826.81	99.097	-986.72	949.51	451.83	-1055.2	943.92	119.59	-1149.1	887.62	319.58	-852.85	610.69	460.89	-776.15	561.42	413.86	-832.21	524.09	442.03	-802.08	646.23	429.26	-782.46	467.05	425.53	-798.81	443.53	280.32	-742.95	252.55	410.29	-635.48	228.19	397.75	-695.09	196.93	401.45	-677.25	284.28	414.18	-620.79	123.17	390	-618.01	148.09	309.17	-659.17	78.567	329.79	-626.28	66.421	301.34	-636.5	51.409	363.05	-505.15	136.56	418.65	-476.93	169.59	317.01	-458.39	212.7	379.06	-1150.4	617.86	140.88	-1097.7	520.63	138.89	-1172.5	533.38	166.32	-1082.6	611.91	115.15	-1136.5	446.62	156.97	-1121.3	446.06	295.81	-1262	308.51	175.38	-1223	204.46	193.54	-1289.9	239.45	199.94	-1206.9	276.94	171.69	-1292.2	113.94	215.49	-1278.1	114.81	299.66	-1358.3	92.385	255.4	-1352.7	68.195	288.6	-1356.6	65.236	226.99	-1196.8	33.769	193.11	-1172	44.841	302.14	-1111.4	51.45	253.22	-1067.2	1376.6	271.62	-1151.2	1128	284.28
121	0.5	-881.23	1077.4	282.93	-993.11	1318.1	423.1	-975.84	1312.2	131.9	-943.18	1594.4	249.6	-887.84	900.61	376.41	-915.35	892.47	160.22	-1108.6	930.98	359.36	-1128.2	939.99	289.28	-934.02	784.99	479.49	-1068.4	825.72	99.24	-980.67	948.19	451.93	-1050.1	942.55	119.67	-1143.3	886.31	320.03	-846.27	609.99	460.54	-769.51	561.1	413.26	-825.32	523.5	441.57	-795.75	645.78	428.82	-775.54	466.58	424.82	-792.13	443.11	279.74	-735.91	251.96	409.22	-628.41	227.73	396.7	-687.99	196.42	400.37	-670.24	283.75	413.23	-613.58	122.75	388.74	-610.92	147.8	307.96	-651.89	78.119	328.48	-619	66.08	300	-629.14	50.953	361.69	-497.96	136.34	417.38	-469.83	169.6	315.74	-451.38	212.66	377.86	-1146	617.18	140.93	-1093.6	519.75	138.79	-1168.3	532.76	166.42	-1078.3	611	115.09	-1132.7	445.88	156.85	-1117.2	445.18	295.74	-1259.8	308.71	175.47	-1221.4	204.49	193.5	-1288	240.09	199.74	-1204.7	276.74	171.7	-1291.5	114.59	215.37	-1277.6	115.42	299.54	-1357.9	93.484	255.23	-1352.5	69.228	288.45	-1356.3	66.254	226.8	-1196.7	33.77	193.11	-1171.9	44.826	302.13	-1111.3	51.292	253.25	-1061.7	1375.3	272.13	-1145.5	1126.6	284.69
122	0.50417	-875.69	1075.9	282.88	-987.48	1316.6	423.55	-970.36	1311	132.34	-937.9	1593.2	250.34	-881.94	899.22	376.12	-910.27	890.98	160.07	-1102.8	929.77	359.68	-1122.4	938.68	289.68	-927.9	784.02	479.51	-1063.5	824.64	99.405	-974.62	946.9	452.01	-1045	941.2	119.76	-1137.5	885.04	320.47	-839.64	609.34	460.2	-762.8	560.84	412.66	-818.34	522.97	441.11	-789.37	645.38	428.38	-768.57	466.13	424.09	-785.32	442.77	279.14	-729.07	251.35	408.15	-621.59	227.12	395.64	-681.16	195.83	399.28	-663.4	283.11	412.27	-606.75	122.17	387.49	-604.17	147.32	306.76	-645.03	77.54	327.18	-612.15	65.566	298.68	-622.25	50.351	360.34	-491.15	135.86	416.14	-463.05	169.28	314.48	-444.65	212.28	376.66	-1141.5	616.49	141	-1089.5	518.89	138.69	-1164.1	532.14	166.52	-1073.8	610.09	115.03	-1128.7	445.13	156.73	-1113.1	444.29	295.68	-1257.5	308.94	175.55	-1219.7	204.55	193.44	-1285.9	240.76	199.53	-1202.3	276.54	171.71	-1290.8	115.29	215.22	-1277	116.1	299.39	-1357.5	94.69	255.03	-1352.2	70.352	288.28	-1355.9	67.355	226.6	-1196.7	33.773	193.11	-1171.8	44.818	302.1	-1111.2	51.133	253.29	-1056.3	1374	272.66	-1139.7	1125.2	285.11
123	0.50833	-870.11	1074.5	282.85	-981.81	1315.1	424	-964.84	1309.8	132.79	-932.6	1592	251.09	-876.01	897.88	375.86	-905.13	889.52	159.93	-1097	928.6	359.99	-1116.6	937.43	290.05	-921.77	783.13	479.54	-1058.5	823.59	99.591	-968.55	945.64	452.08	-1039.9	939.87	119.85	-1131.8	883.81	320.9	-832.94	608.72	459.88	-756.03	560.63	412.07	-811.31	522.48	440.66	-782.93	645.04	427.97	-761.55	465.7	423.35	-778.38	442.52	278.52	-722.43	250.71	407.08	-615	226.36	394.57	-674.61	195.16	398.18	-656.73	282.37	411.29	-600.29	121.44	386.23	-597.76	146.66	305.56	-638.59	76.83	325.89	-605.73	64.88	297.37	-615.8	49.605	359.02	-484.72	135.11	414.93	-456.6	168.62	313.24	-438.21	211.56	375.48	-1136.9	615.81	141.08	-1085.2	518.03	138.59	-1159.7	531.51	166.62	-1069.3	609.19	114.98	-1124.7	444.39	156.6	-1108.9	443.41	295.61	-1255.1	309.2	175.63	-1217.9	204.65	193.36	-1283.8	241.49	199.29	-1200	276.36	171.73	-1290	116.03	215.05	-1276.4	116.83	299.22	-1357	96.008	254.82	-1351.9	71.573	288.09	-1355.5	68.544	226.37	-1196.5	33.777	193.1	-1171.8	44.816	302.06	-1111.1	50.974	253.32	-1050.8	1372.8	273.22	-1134	1123.8	285.53
124	0.5125	-864.48	1073.1	282.82	-976.09	1313.6	424.47	-959.29	1308.6	133.26	-927.27	1590.8	251.87	-870.04	896.59	375.64	-899.93	888.1	159.8	-1091.2	927.46	360.29	-1110.8	936.22	290.42	-915.62	782.3	479.6	-1053.4	822.56	99.797	-962.48	944.41	452.15	-1034.7	938.57	119.96	-1125.9	882.62	321.31	-826.19	608.13	459.58	-749.22	560.46	411.48	-804.22	522.02	440.22	-776.45	644.73	427.58	-754.51	465.29	422.59	-771.33	442.34	277.88	-715.98	250.05	406.02	-608.64	225.45	393.49	-668.32	194.41	397.09	-650.22	281.53	410.3	-594.21	120.55	384.98	-591.68	145.82	304.35	-632.56	75.995	324.6	-599.71	64.027	296.08	-609.79	48.722	357.72	-478.64	134.1	413.73	-450.47	167.64	312.02	-432.06	210.52	374.3	-1132.2	615.14	141.18	-1080.9	517.18	138.5	-1155.3	530.88	166.74	-1064.7	608.31	114.95	-1120.5	443.66	156.48	-1104.5	442.53	295.55	-1252.6	309.49	175.69	-1216.1	204.78	193.26	-1281.6	242.25	199.05	-1197.5	276.21	171.75	-1289.2	116.83	214.85	-1275.8	117.64	299.02	-1356.5	97.439	254.59	-1351.5	72.893	287.88	-1355	69.826	226.13	-1196.4	33.784	193.08	-1171.7	44.822	302.02	-1111	50.813	253.35	-1045.3	1371.6	273.79	-1128.2	1122.4	285.94
